<?xml version="1.0" encoding="utf-8"?>
<!-- Generator: Adobe Illustrator 23.0.3, SVG Export Plug-In . SVG Version: 6.00 Build 0)  -->
<svg version="1.1" id="layer" xmlns="http://www.w3.org/2000/svg" xmlns:xlink="http://www.w3.org/1999/xlink" x="0px" y="0px"
	 viewBox="0 0 652 154.1" style="enable-background:new 0 0 652 154.1;" xml:space="preserve">
<style type="text/css">
	.st0{fill:#A0001E;}
	.st1{fill:#20292D;}
	.st2{fill:#20292D;stroke:#20292D;stroke-width:0.657;stroke-miterlimit:10;}
</style>
<g>
	<path class="st0" d="M249.1,37.6l-29.5,52.8h16.6l21.7-39.2l21.7,39.2h16.6l-29.5-52.8H249.1z"/>
	<path class="st0" d="M198.5,14.6v86.6l59.2,42l59.5-42.3V14.6H198.5z M257.7,126.5l-45.3-32.1V28.2h91v65.9L257.7,126.5z"/>
</g>
<g>
	<path class="st1" d="M369.3,82.3c0,4.1,1.8,5.1,6.6,5.1h3.3c5.8,0,8.3-3.6,13.7-13.4h2.7l-2.7,16.3h-40.6v-2.7
		c5.2-0.6,6.1-1,6.1-5.2V45.2c0-4.1-0.7-4.6-6.1-5.2v-2.7h23.1v2.7c-5.2,0.6-6.1,1-6.1,5.2V82.3z M433.5,82c0,2.6,0.5,4.2,2.5,4.2
		c1.1,0,2.2-0.4,3-0.7l0.4,1.6c-2.2,2.6-5,4-8.6,4c-4.1,0-6.8-2.5-7.5-6.7C421,87.7,417,91,411.6,91c-6.1,0-10.2-3.7-10.2-9.8
		c0-6.5,4.7-9.1,10.3-11.2l11.4-4.1v-6.4c0-4.3-1.4-7.4-5.3-7.4c-3.6,0-5,2.7-5,6.4c0,1.5,0.2,3,0.6,4.7l-6.3,0.8
		c-2.1-0.7-3.3-2.3-3.3-4.7c0-6.3,6.5-9.5,14.9-9.5c9.7,0,14.9,3.5,14.9,12.3L433.5,82L433.5,82z M423.1,82.7V68.6l-6.5,2.7
		c-3.2,1.2-5.1,3-5.1,7.2c0,3.9,1.8,6.7,5.8,6.7C419.5,85.1,421,84.3,423.1,82.7 M495,62.5c0-4.3-1.5-6.5-5.4-6.5
		c-3,0-5.4,1.4-7.8,3.2v25.4c0,2.7,1,3.1,4.4,3.3v2.5h-19.4v-2.6c3.5-0.2,4.5-0.7,4.5-3.3V62.5c0-4.3-1.5-6.5-5.4-6.5
		c-3,0-5.4,1.4-7.8,3.1v25.5c0,2.7,1,3.1,4.5,3.3v2.5H443v-2.5c3.5-0.2,4.7-0.7,4.7-3.3V57.9l-4.5-2.7v-1.4l13.5-4.1h1.7l-0.3,7.5
		c3.2-4.1,7.2-7.5,13.5-7.5c5.5,0,8.8,2.4,9.8,7.6c3.2-4,7.5-7.6,13.8-7.6c6.9,0,10.3,4.1,10.3,12.1v22.8c0,2.7,1.2,3.1,4.7,3.3v2.5
		h-19.6v-2.5c3.5-0.2,4.4-0.7,4.4-3.3L495,62.5L495,62.5z M513.1,36.6V35l13.4-3.6h1.6v25.4c2.5-3.8,6.7-7.1,12.6-7.1
		c9.2,0,15,6.7,15,18.3c0,14.8-9.1,23.1-20.8,23.1c-6.7,0-13.1-1.7-17.4-5.2V39C517.6,38.9,513.1,36.6,513.1,36.6z M545.2,71.7
		c0-9.2-3.4-15.7-10.5-15.7c-2.5,0-4.9,1-6.7,2.7v21.1c0,5.8,2.3,8.6,6.9,8.6C541.3,88.3,545.2,81,545.2,71.7 M584.3,36.6V35
		l13.4-3.6h1.6v51.1c0,2.6,0.1,3.4,3,3.6l1.8,0.1v2.3l-13.7,2.7h-2l0.3-7c-3,4.3-6.9,7-12.1,7c-9.1,0-15.2-7.4-15.2-18.8
		c0-14.3,8.4-22.5,19.2-22.5c3.5,0,6.4,1,8.1,2.7V39C588.8,38.9,584.3,36.6,584.3,36.6z M571.9,68.7c0,9.2,3.8,16,10.6,16
		c2.6,0,4.7-0.8,6.4-2.4V62.4c0-5.9-2.5-9.3-7-9.3C575.5,53.1,571.9,59.3,571.9,68.7 M641.2,82c0,2.6,0.5,4.2,2.5,4.2
		c1.1,0,2.2-0.4,3-0.7l0.4,1.6c-2.2,2.6-5,4-8.6,4c-4.1,0-6.8-2.5-7.5-6.7c-2.4,3.2-6.4,6.5-11.7,6.5c-6.1,0-10.2-3.7-10.2-9.8
		c0-6.5,4.7-9.1,10.3-11.2l11.4-4.1v-6.4c0-4.3-1.4-7.4-5.3-7.4c-3.6,0-5,2.7-5,6.4c0,1.5,0.2,3,0.6,4.7l-6.3,0.8
		c-2.1-0.7-3.3-2.3-3.3-4.7c0-6.3,6.5-9.5,14.9-9.5c9.7,0,14.9,3.5,14.9,12.3C641.2,62,641.2,82,641.2,82z M630.7,82.7V68.6
		l-6.5,2.7c-3.2,1.2-5.1,3-5.1,7.2c0,3.9,1.8,6.7,5.8,6.7C627.1,85.1,628.7,84.3,630.7,82.7"/>
</g>
<g>
	<path class="st2" d="M48.3,64.6H23.2v18.8c0,1.4,0.2,2.4,0.6,3c0.4,0.6,1.3,1,2.9,1.3l2.5,0.5v2H8.9v-2l2.5-0.5
		c1.1-0.3,1.9-0.8,2.3-1.5c0.4-0.7,0.6-2.1,0.6-4.1V44.6c0-1.4-0.2-2.4-0.6-2.9c-0.4-0.5-1.4-1-2.8-1.4l-2-0.5v-2h20.2v2l-3,0.5
		c-1.2,0.2-2,0.7-2.4,1.5c-0.4,0.8-0.6,2.1-0.6,4.1v15.5h25.1V44.6c0-1.4-0.2-2.4-0.6-2.9c-0.4-0.5-1.4-1-2.8-1.4l-2-0.5v-2H63v2
		l-3,0.5c-1.2,0.2-2,0.7-2.4,1.5c-0.4,0.8-0.6,2.1-0.6,4.1v37.6c0,1.4,0.2,2.4,0.6,3c0.4,0.6,1.3,1,2.9,1.3l2.5,0.5v2H42.8v-2
		l2.5-0.5c1.1-0.3,1.9-0.8,2.3-1.5c0.4-0.7,0.6-2.1,0.6-4.1V64.6z"/>
	<path class="st2" d="M81.6,83.4c0,1.4,0.2,2.4,0.6,3c0.4,0.6,1.3,1,2.9,1.3l2.5,0.5v2H67.8v-2l2.5-0.5c1.2-0.3,2-0.8,2.4-1.5
		c0.4-0.7,0.6-2.1,0.6-4.1V57.8c0-1.4-0.2-2.3-0.5-2.9c-0.3-0.6-0.9-1-1.8-1.4l-1.9-0.7V51l11.6-4.4l0.9,0.6V83.4z M77.1,41.5
		c-1.6,0-2.8-0.5-3.7-1.4c-0.9-1-1.4-2.2-1.4-3.7c0-1.4,0.5-2.6,1.5-3.6c1-1,2.2-1.5,3.6-1.5c1.6,0,2.8,0.5,3.8,1.5
		c0.9,1,1.4,2.2,1.4,3.7c0,1.4-0.5,2.6-1.5,3.6C79.7,41,78.5,41.5,77.1,41.5z"/>
	<path class="st2" d="M105.5,53.9c1.5-2.3,3.2-4.1,5.1-5.3c1.9-1.2,3.8-1.8,5.8-1.8s3.5,0.6,4.6,1.7c1.1,1.1,1.7,2.6,1.7,4.3
		c0,1.6-0.5,2.9-1.4,3.6c-0.9,0.8-2,1.2-3.2,1.2c-1.3,0-2.3-0.4-3.1-1.2c-0.8-0.8-1.1-2-1.1-3.6v-1.1c-1.4,0.1-2.8,0.5-4.2,1.3
		c-1.4,0.7-2.8,1.9-4.2,3.6v26.8c0,1.4,0.2,2.4,0.6,3c0.4,0.6,1.4,1,2.8,1.3l3.4,0.5v2H91.7v-2l2.5-0.5c1.2-0.3,2-0.8,2.4-1.5
		c0.4-0.7,0.6-2.1,0.6-4.1V57.8c0-1.4-0.2-2.3-0.5-2.9c-0.3-0.6-0.9-1-1.8-1.4L93,52.7V51l11.6-4.4l0.9,0.6V53.9z"/>
	<path class="st2" d="M145.5,47.2c2.6,0,4.9,0.4,6.9,1.3c2,0.8,3.6,2,5,3.4c1.3,1.4,2.3,3,3,4.9c0.7,1.9,1,3.8,1,5.9v2.3H134
		c0,0.4,0,0.8,0,1.1c0,0.4,0,0.7,0,1.1c0,5.9,1.3,10.3,3.9,13.1c2.6,2.9,6.1,4.3,10.6,4.3c2.2,0,4.3-0.3,6.3-0.9
		c2-0.6,4-1.5,6.2-2.7l1.1,1.6l-1.8,1.8c-2.2,2.3-4.5,4-6.8,5.1c-2.3,1.1-4.9,1.7-7.8,1.7c-2.8,0-5.5-0.5-7.9-1.4
		c-2.4-1-4.5-2.3-6.3-4.1c-1.8-1.8-3.2-4-4.2-6.7c-1-2.6-1.5-5.7-1.5-9c0-3.3,0.5-6.4,1.6-9.2c1-2.8,2.5-5.2,4.3-7.2
		c1.8-2,3.9-3.5,6.3-4.6C140.1,47.7,142.7,47.2,145.5,47.2z M144.6,50c-2.7,0-5,1.1-6.7,3.2c-1.7,2.1-2.9,4.9-3.5,8.5h17.5
		c0-2.1-0.2-3.9-0.6-5.4c-0.4-1.5-0.9-2.7-1.6-3.6s-1.4-1.6-2.3-2S145.6,50,144.6,50z"/>
</g>
</svg>
